<?xml version="1.0" encoding="UTF-8" standalone="no"?>
<!-- Created with Inkscape (http://www.inkscape.org/) -->

<svg
   version="1.1"
   id="svg1"
   width="867.33335"
   height="886.66669"
   viewBox="0 0 867.33335 886.66669"
   sodipodi:docname="4 łapy centrum.eps"
   xmlns:inkscape="http://www.inkscape.org/namespaces/inkscape"
   xmlns:sodipodi="http://sodipodi.sourceforge.net/DTD/sodipodi-0.dtd"
   xmlns="http://www.w3.org/2000/svg"
   xmlns:svg="http://www.w3.org/2000/svg">
  <defs
     id="defs1" />
  <sodipodi:namedview
     id="namedview1"
     pagecolor="#ffffff"
     bordercolor="#000000"
     borderopacity="0.25"
     inkscape:showpageshadow="2"
     inkscape:pageopacity="0.0"
     inkscape:pagecheckerboard="0"
     inkscape:deskcolor="#d1d1d1">
    <inkscape:page
       x="0"
       y="0"
       inkscape:label="1"
       id="page1"
       width="867.33335"
       height="886.66669"
       margin="0"
       bleed="0" />
  </sodipodi:namedview>
  <g
     id="g1"
     inkscape:groupmode="layer"
     inkscape:label="1">
    <path
       id="path1"
       d="m 858.152,4633.35 c 48.305,37.99 95.227,78.85 149.088,120.63 l 1962.94,1565.14 2427.32,-1936.6 -0.05,-840 c 0.14,-703.34 -11.4,-1531.17 0.68,-2227.28 l -628.81,0.19 c -1393.05,-0.09 -2831.76,11.16 -4219.3,-0.71 0.781,1018.98 -8.168,2061.94 2.164,3077.8 z M 269.547,4179.22 268.09,1292.52 c 0.039,-64.11 -5.309,-131.89 23.187,-186.96 51.891,-100.27 225.856,-75.36 358.043,-75.18 l 4840,-0.08 c 225.03,0.02 182.16,173.93 182.21,452.22 0.16,878.56 10.25,1827.82 -0.73,2699 167.86,-172.04 398.95,50.68 158.93,241.66 -228.93,182.15 -602.72,460.52 -809.85,640.05 L 3401.03,6344.67 c -65.12,54.96 -133.65,106.2 -199.79,160.2 -50.83,41.5 -147.17,141.83 -231.81,140.95 -78.17,-0.82 -142.84,-73.05 -223.46,-139.47 L 2138.19,6023.68 C 1864.37,5810.54 1604.77,5596.09 1331.47,5380.99 926.285,5062.08 526.691,4733.16 119.414,4423.03 -152.273,4216.14 131.602,4012.64 269.547,4179.22"
       style="fill:#f36319;fill-opacity:1;fill-rule:evenodd;stroke:none"
       transform="matrix(0.13333333,0,0,-0.13333333,0,886.66667)" />
    <path
       id="path2"
       d="m 4159.32,4277.61 c -66.02,-40.63 -130.25,-86.48 -239.18,-81.18 -341.23,16.58 -169.75,553.36 -75.62,613.21 -33.6,-71.57 -146.68,-476.58 -10.98,-544.35 48.89,-24.41 130.47,-24.24 187.06,-6.17 415.05,132.49 232.83,604.1 -29.6,766.04 -92.71,57.22 -228.01,86.46 -361.03,48.48 -105.89,-30.23 -193.15,-116.87 -232.86,-199.85 -45.42,-94.91 -12.9,-63.75 -126.88,-89.85 -60.98,-13.96 -118.69,-24.74 -163.74,-48.2 -38.6,-196.05 62.54,-340.05 189.35,-397.8 53.04,-24.15 190.58,-36.24 222.2,-76.36 42.64,-54.12 58.66,-147.17 40.95,-231.16 -63.25,-300.02 -68.02,-204.5 -4.72,-501.31 20.98,-98.34 -51.92,-393.85 -102.96,-458.79 -66.08,-12.41 -73.74,-10.22 -114.13,-55.93 -43.61,-49.37 -74.71,-126.88 25.95,-137.03 221.85,-22.38 296.74,-13.11 341.43,202.51 33.05,159.47 93.66,393.58 58.52,554.58 50.52,-119.98 35.19,-247.51 10.47,-388.67 -11.34,-64.74 -22.63,-126.91 -38.42,-191.51 -31.4,-128.39 -116.34,-174.67 36.16,-178.56 32.4,-0.82 62.51,0.65 94.45,0.4 14.91,83.13 1.65,102.42 55.24,154.6 35.71,34.75 67.46,34.95 101.15,45.71 l 32.43,14.6 c 1.57,3.93 5.58,3.05 7.89,5.18 -89.84,67.23 -97.35,221.76 -49.27,343.53 49.21,124.64 135.09,187.88 271.32,189.81 -42.61,-17.18 -49.57,-11.49 -91.23,-40.34 -79.9,-55.34 -132.85,-122.11 -158.2,-225.13 -19.75,-80.29 -8.93,-155.45 29.41,-215.37 34.73,-54.29 84.12,-75.16 149.13,-106.85 -62.71,13.15 -144.94,26.39 -205.13,2.57 -50.57,-20.02 -85.81,-76.96 -67.19,-149.88 27.61,-43.99 555.69,-21.75 618.96,-16.48 83.49,6.96 112.74,44.32 180.71,25.44 161.49,-44.85 290.08,5.05 291.9,163.92 -138.84,-3.73 -167.06,20.45 -250.03,85.09 l 0.13,50 c 1.68,564.54 -407.73,685.76 -553.25,929.87 -61.47,103.13 -30.1,60.32 -61.47,129.66 -0.9,2 -3.64,3.37 -4.33,7.76 -0.7,4.48 -2.77,5.4 -4.59,7.81 z m -649.48,498.18 c 25.27,0 45.75,-21.33 45.75,-47.63 0,-26.3 -20.48,-47.62 -45.75,-47.62 -25.27,0 -45.75,21.32 -45.75,47.62 0,26.3 20.48,47.63 45.75,47.63"
       style="fill:#040307;fill-opacity:1;fill-rule:evenodd;stroke:none"
       transform="matrix(0.13333333,0,0,-0.13333333,0,886.66667)" />
    <path
       id="path3"
       d="m 733.941,312.043 194,-58.504 c -13,-54.332 -33.5,-99.832 -61.664,-136.164 -28,-36.5 -62.668,-64 -104.336,-82.5 -41.496,-18.5 -94.332,-27.83203 -158.5,-27.83203 -78,0 -141.496,11.33203 -190.996,33.83203 -49.336,22.668 -91.836,62.5 -127.668,119.332 -35.832,56.836 -53.832,129.836 -53.832,218.5 0,118.332 31.5,209.332 94.5,273 63.164,63.5 152.332,95.332 267.664,95.332 90.168,0 161.164,-18.164 212.832,-54.664 51.5,-36.5 90,-92.5 115.004,-168.168 L 725.941,481.039 c -6.832,21.668 -14,37.5 -21.5,47.5 -12.496,16.832 -27.664,29.832 -45.5,38.832 -18,9.168 -37.996,13.672 -60.164,13.672 -50.336,0 -88.836,-20.172 -115.5,-60.336 -20.168,-29.832 -30.332,-76.836 -30.332,-140.668 0,-79.328 11.996,-133.496 36.164,-162.996 24.168,-29.336 58,-44 101.668,-44 42.332,0 74.336,11.832 96,35.664 21.668,23.668 37.332,58.168 47.164,103.336 z m 300.839,422.996 h 592 v -153 h -370.01 v -114 h 343.01 v -146 H 1256.77 V 181.043 h 381 v -162 h -602.99 z m 724.16,0 h 206.5 l 268.5,-395.332 v 395.332 h 209 V 19.043 h -209 l -267,393.164 V 19.043 h -208 z m 781,0 h 673 v -177 h -226 V 19.043 h -221 v 538.996 h -226 z M 3315.11,19.043 v 715.996 h 368.66 c 68.34,0 120.67,-5.832 156.67,-17.664 36.16,-11.668 65.33,-33.5 87.5,-65.168 22.16,-31.832 33.17,-70.668 33.17,-116.332 0,-39.668 -8.51,-74.004 -25.51,-102.832 -16.83,-29.004 -40.16,-52.336 -69.99,-70.336 -18.84,-11.332 -44.84,-20.832 -77.67,-28.332 26.33,-8.836 45.5,-17.5 57.5,-26.332 8,-5.836 19.83,-18.504 35.33,-37.668 15.33,-19.168 25.67,-34 30.84,-44.5 l 107.5,-206.832 h -250 l -118.17,218.332 c -15,28.332 -28.33,46.668 -40,55.168 -16,10.996 -34.17,16.496 -54.33,16.496 h -19.5 V 19.043 Z m 222,424.996 h 93.5 c 10,0 29.66,3.336 58.66,9.836 14.67,2.832 26.67,10.332 35.84,22.5 9.33,12.168 13.99,26 13.99,41.668 0,23.164 -7.33,41 -22,53.328 -14.66,12.504 -42.16,18.672 -82.66,18.672 h -97.33 z m 1001.66,291 h 221 V 308.543 c 0,-42.168 -6.66,-82.168 -19.83,-119.668 -13.17,-37.668 -33.84,-70.5 -62,-98.668 -28.17,-28.1679 -57.67,-47.832 -88.5,-59.332 -43,-15.832 -94.67,-23.83203 -154.84,-23.83203 -34.83,0 -72.83,2.5 -113.99,7.33203 -41.17,4.832 -75.67,14.5 -103.34,29 -27.66,14.5 -53,35 -75.83,61.668 -23,26.664 -38.67,54.168 -47.17,82.5 -13.66,45.496 -20.5,85.832 -20.5,121 v 426.496 h 221 V 298.375 c 0,-39 10.84,-69.5 32.34,-91.336 21.66,-21.996 51.66,-33 90,-33 37.83,0 67.66,10.836 89.33,32.504 21.5,21.496 32.33,52.164 32.33,91.832 z m 365,0 h 291.83 l 111.17,-435.664 111.5,435.664 h 290.5 V 19.043 h -181 V 564.871 L 5388.1,19.043 h -164 L 5084.77,564.871 V 19.043 h -181 v 715.996"
       style="fill:#231f20;fill-opacity:1;fill-rule:nonzero;stroke:none"
       transform="matrix(0.13333333,0,0,-0.13333333,0,886.66667)" />
    <path
       id="path4"
       d="m 2070.37,3310.61 h -961.99 v 502.38 l 961.99,1322.81 h 459.73 v -1352 h 239.17 V 3310.61 H 2530.1 v -411.75 h -459.73 z m 0,473.19 v 694.44 L 1562.35,3783.8 Z"
       style="fill:#231f20;fill-opacity:1;fill-rule:nonzero;stroke:none"
       transform="matrix(0.13333333,0,0,-0.13333333,0,886.66667)" />
    <path
       id="path5"
       d="m 2186.52,2284.13 c -84.06,-36.8 -20.41,-216.88 62.17,-184.65 70.61,27.55 19.14,220.25 -62.17,184.65 z m 222.3,84.66 c -25.94,143.94 -147.06,124.11 -125.92,-39.08 18.08,-139.51 155.06,-122.65 125.92,39.08 z m 170.38,91.98 c -120.91,8.55 -116.22,-194.09 -56.17,-220.82 54.67,-24.34 83.01,25.18 90.01,74.31 9.87,69.27 4.72,98.31 -33.84,146.51 z m 89.37,-178.65 c -80.88,-50.81 -60.61,-240.37 33.32,-175.91 76.08,52.22 47.55,226.71 -33.32,175.91 z m -223.62,-378.54 c 26.91,-48.1 53.82,-72.15 107.63,-72.15 59.41,0 107.63,43.09 107.63,96.2 0,96.19 -107.63,192.39 -215.26,288.59 -107.62,-96.2 -215.25,-192.4 -215.25,-288.59 0,-53.11 48.22,-96.2 107.63,-96.2 53.81,0 80.72,24.05 107.62,72.15"
       style="fill:#f57926;fill-opacity:1;fill-rule:evenodd;stroke:none"
       transform="matrix(0.13333333,0,0,-0.13333333,0,886.66667)" />
    <path
       id="path6"
       d="m 2274.45,1849.56 -47.42,-181.26 h -303.62 l 362.33,1122.61 h 325.58 L 2972.08,1668.3 h -311.47 l -46.91,180.15 c 28.1,17.37 46.51,46.35 46.51,79.18 0,96.19 -107.63,192.39 -215.26,288.59 -107.62,-96.2 -215.25,-192.4 -215.25,-288.59 0,-32.15 17.62,-60.6 44.75,-78.07 z m -87.93,434.57 c -84.06,-36.8 -20.41,-216.88 62.17,-184.65 70.61,27.55 19.14,220.25 -62.17,184.65 z m 222.3,84.66 c -25.94,143.94 -147.06,124.11 -125.92,-39.08 18.08,-139.51 155.06,-122.65 125.92,39.08 z m 170.38,91.98 c -120.91,8.55 -116.22,-194.09 -56.17,-220.82 54.67,-24.34 83.01,25.18 90.01,74.31 9.87,69.27 4.72,98.31 -33.84,146.51 z m 89.37,-178.65 c -80.88,-50.81 -60.6,-240.37 33.33,-175.91 76.07,52.22 47.55,226.71 -33.33,175.91 z m -1545.1,-64.54 v 573.33 h 297.12 v -310.71 l 208.38,184.23 v -214.54 l -208.38,-184.23 v -321.42 h 463.83 v -275.95 h -760.95 z m 2816.61,573.33 h 330.3 l 194.7,-377.86 193.8,377.86 h 328.5 l -373.7,-652.51 v -470.11 h -298.5 v 470.11 z m -577,-479.78 h 73.3 c 57.8,0 98.3,11.76 121.6,35.02 23.3,23.26 35,53.05 35,89.37 0,35.28 -10.1,65.07 -30.5,89.63 -20.1,24.56 -58.2,36.85 -114.3,36.85 h -85.1 z m -298.5,479.78 h 494.8 c 107.8,0 188.4,-29.79 242.2,-89.63 53.6,-59.84 80.5,-145.03 80.5,-255.57 0,-113.41 -29.4,-202.26 -87.9,-266.02 -58.5,-64.02 -147.9,-95.9 -268,-95.9 h -163.1 v -415.5 h -298.5 v 1122.62"
       style="fill:#231f20;fill-opacity:1;fill-rule:nonzero;stroke:none"
       transform="matrix(0.13333333,0,0,-0.13333333,0,886.66667)" />
  </g>
</svg>
